<svg viewBox="0 0 100 90" fill="none" xmlns="http://www.w3.org/2000/svg">
  <!-- Upper body front view - torso silhouette -->
  <!-- Neck -->
  <path d="M42 2 L58 2 L60 10 L40 10 L42 2 Z" fill="#8BA4B4"/>
  <!-- Shoulders -->
  <path d="M15 18 Q8 22 5 28 L5 40 Q8 48 15 50 L20 45 Q22 35 22 25 L15 18 Z" fill="#8BA4B4"/>
  <path d="M85 18 Q92 22 95 28 L95 40 Q92 48 85 50 L80 45 Q78 35 78 25 L85 18 Z" fill="#8BA4B4"/>
  <!-- Torso base -->
  <path d="M22 15 L40 10 L60 10 L78 15 L80 25 Q82 40 80 55 L78 70 Q70 85 50 88 Q30 85 22 70 L20 55 Q18 40 20 25 L22 15 Z" fill="#8BA4B4"/>
  <!-- Pectoral muscles - highlighted in red -->
  <path d="M28 22 Q35 18 48 20 L48 35 Q40 42 28 38 L25 30 Q25 25 28 22 Z" fill="#EF4444"/>
  <path d="M72 22 Q65 18 52 20 L52 35 Q60 42 72 38 L75 30 Q75 25 72 22 Z" fill="#EF4444"/>
  <!-- Abs outline -->
  <path d="M40 45 L60 45 L60 80 L40 80 Z" stroke="#3D4F5F" stroke-width="1" fill="none"/>
  <path d="M50 45 L50 80" stroke="#3D4F5F" stroke-width="1"/>
  <path d="M40 55 L60 55" stroke="#3D4F5F" stroke-width="1"/>
  <path d="M40 65 L60 65" stroke="#3D4F5F" stroke-width="1"/>
</svg>
