<svg viewBox="0 0 80 100" fill="none" xmlns="http://www.w3.org/2000/svg">
  <!-- Lower body back view with glutes highlighted -->
  <!-- Waist/lower back area -->
  <path d="M15 5 Q20 2 40 2 Q60 2 65 5 L68 15 Q70 25 68 30 L62 35 Q50 38 40 40 Q30 38 18 35 L12 30 Q10 25 12 15 L15 5 Z" fill="#8BA4B4"/>
  <!-- Left leg base -->
  <path d="M18 35 Q20 50 22 70 L24 90 Q25 95 27 98 L30 95 Q32 85 32 70 L30 50 Q28 40 30 35" fill="#8BA4B4"/>
  <!-- Right leg base -->
  <path d="M50 35 Q52 40 50 50 L48 70 Q48 85 50 95 L53 98 Q55 95 56 90 L58 70 Q60 50 62 35" fill="#8BA4B4"/>
  <!-- Left glute - highlighted in orange -->
  <path d="M20 20 Q25 18 35 22 L38 30 Q35 38 28 40 L22 38 Q18 32 18 26 L20 20 Z" fill="#F97316"/>
  <!-- Right glute - highlighted in orange -->
  <path d="M60 20 Q55 18 45 22 L42 30 Q45 38 52 40 L58 38 Q62 32 62 26 L60 20 Z" fill="#F97316"/>
  <!-- Spine/center line -->
  <path d="M40 5 L40 38" stroke="#3D4F5F" stroke-width="1.5"/>
</svg>
