<svg viewBox="0 0 80 100" fill="none" xmlns="http://www.w3.org/2000/svg">
  <!-- Lower body/legs front view silhouette -->
  <!-- Waist/hip area -->
  <path d="M15 5 Q20 2 40 2 Q60 2 65 5 L68 15 Q70 25 68 30 L62 35 Q50 38 40 40 Q30 38 18 35 L12 30 Q10 25 12 15 L15 5 Z" fill="#8BA4B4"/>
  <!-- Left leg base -->
  <path d="M18 35 Q20 50 22 70 L24 90 Q25 95 27 98 L30 95 Q32 85 32 70 L30 50 Q28 40 30 35" fill="#8BA4B4"/>
  <!-- Right leg base -->
  <path d="M50 35 Q52 40 50 50 L48 70 Q48 85 50 95 L53 98 Q55 95 56 90 L58 70 Q60 50 62 35" fill="#8BA4B4"/>
  <!-- Left quadriceps - highlighted in pink/red -->
  <path d="M22 38 Q18 50 20 65 L22 80 Q25 85 28 82 L30 70 Q32 55 30 42 L22 38 Z" fill="#EF4444"/>
  <!-- Right quadriceps - highlighted in pink/red -->
  <path d="M50 42 Q48 55 50 70 L52 82 Q55 85 58 80 L60 65 Q62 50 58 38 L50 42 Z" fill="#EF4444"/>
  <!-- Shorts/underwear -->
  <path d="M18 15 Q25 12 40 12 Q55 12 62 15 L62 32 Q50 35 40 35 Q30 35 18 32 L18 15 Z" fill="#6B7C89" opacity="0.7"/>
</svg>
